<svg width="48" height="48" viewBox="0 0 48 48" fill="none" xmlns="http://www.w3.org/2000/svg">
<path d="M48 0H0V48H48V0Z" fill="#69AB3C"/>
<path fill-rule="evenodd" clip-rule="evenodd" d="M35.0862 25.8364L35.1356 25.5382C35.428 25.7056 35.6674 25.8556 35.8557 25.9812C35.6418 25.948 35.3768 25.8975 35.0862 25.8364ZM23.8565 23.0321C23.8565 23.5117 23.4471 23.9041 22.9427 23.9041C22.44 23.9041 22.0288 23.5117 22.0288 23.0321C22.0288 22.5508 22.44 22.1602 22.9427 22.1602C23.4471 22.1602 23.8565 22.5508 23.8565 23.0321ZM31.8091 34.5004C31.6537 34.5859 31.3156 34.7062 31.0323 34.8091L30.5552 34.9835C30.0672 35.1666 29.4878 35.3323 28.8262 35.4753C27.1702 35.8398 24.8782 36.056 22.6996 36.056C15.862 36.056 14.1293 34.926 14.0671 34.558L11.7788 17.7026C14.3285 18.953 18.7352 19.5442 22.9427 19.5442C26.7206 19.5442 31.7323 19.0088 34.5909 17.6747L33.3169 25.3813C30.6466 24.5982 27.4627 23.1874 25.571 22.3241C25.2438 21.2254 24.1965 20.4162 22.9427 20.4162C21.4311 20.4162 20.201 21.5881 20.201 23.0321C20.201 24.4744 21.4311 25.6481 22.9427 25.6481C24.0229 25.6481 24.9495 25.0429 25.3973 24.1762C27.4316 25.0935 30.4565 26.3945 33.0282 27.1217L31.8091 34.5004ZM22.9427 12.544C30.7398 12.544 34.9583 14.3856 35.0076 15.1564L35.0003 15.1983C34.9126 15.9761 30.7051 17.8003 22.9427 17.8003C15.5476 17.8003 11.4973 16.0912 11.4388 15.193L11.4352 15.1582C11.4681 14.2635 15.5238 12.544 22.9427 12.544ZM35.4426 23.6896L36.8335 15.3081V15.3064C36.8372 15.2611 36.8445 15.2192 36.8445 15.1721C36.8445 11.9632 28.5319 10.8 22.9427 10.8C16.5163 10.8 9.6001 12.169 9.6001 15.1721C9.6001 15.2105 9.60558 15.2471 9.60741 15.2837L12.2595 34.8109C12.3856 35.5503 12.7694 37.8 22.6996 37.8C25.008 37.8 27.4517 37.5681 29.2356 37.1757C29.9831 37.0117 30.6521 36.8199 31.2242 36.6054L31.6793 36.4397C32.6279 36.0979 33.6076 35.7456 33.5984 34.8074L34.8011 27.5612C35.6181 27.7304 36.2432 27.8089 36.6946 27.8089C37.539 27.8089 37.8607 27.5734 38.0837 27.3205C38.3506 27.0171 38.4529 26.6352 38.3743 26.2445C38.2153 25.4667 37.3709 24.7238 35.4426 23.6896Z" fill="white"/>
</svg>
